<svg width="129" height="116" viewBox="0 0 129 116" fill="none" xmlns="http://www.w3.org/2000/svg">
<ellipse cx="64.5" cy="58" rx="64.5" ry="58" fill="#0F172E"/>
<g clip-path="url(#clip0_218_330)">
<path d="M93 67.3333V86H74.3333C71.0599 85.9966 67.8449 85.1325 65.0109 83.4944C62.1768 81.8562 59.8234 79.5015 58.1867 76.6667C59.9457 76.6541 61.6987 76.4602 63.418 76.088C64.7273 77.7252 66.3883 79.0467 68.2778 79.9547C70.1674 80.8627 72.237 81.3339 74.3333 81.3333H88.3333V67.3333C88.3328 65.2362 87.8602 63.1661 86.9505 61.2766C86.0409 59.387 84.7175 57.7264 83.0787 56.418C83.454 54.6991 83.651 52.946 83.6667 51.1867C86.5015 52.8234 88.8562 55.1768 90.4944 58.0109C92.1325 60.8449 92.9966 64.0599 93 67.3333ZM79 51C79 45.4305 76.7875 40.089 72.8492 36.1508C68.911 32.2125 63.5695 30 58 30C52.4305 30 47.089 32.2125 43.1508 36.1508C39.2125 40.089 37 45.4305 37 51V72H58C63.5676 71.9938 68.9055 69.7793 72.8424 65.8424C76.7793 61.9055 78.9938 56.5676 79 51ZM41.6667 51C41.6667 47.7696 42.6246 44.6117 44.4193 41.9257C46.2141 39.2397 48.765 37.1462 51.7495 35.91C54.734 34.6737 58.0181 34.3503 61.1865 34.9805C64.3548 35.6107 67.2652 37.1663 69.5494 39.4506C71.8337 41.7348 73.3893 44.6452 74.0195 47.8135C74.6497 50.9819 74.3263 54.266 73.09 57.2505C71.8538 60.235 69.7603 62.7859 67.0743 64.5807C64.3883 66.3754 61.2304 67.3333 58 67.3333H41.6667V51Z" fill="#F9F9F9"/>
</g>
<defs>
<clipPath id="clip0_218_330">
<rect width="56" height="56" fill="white" transform="translate(37 30)"/>
</clipPath>
</defs>
</svg>
